<svg width="64" height="64" viewBox="0 0 64 64" fill="none" xmlns="http://www.w3.org/2000/svg">
  <defs>
    <linearGradient id="heartGrad" x1="8" y1="10" x2="56" y2="56" gradientUnits="userSpaceOnUse">
      <stop offset="0" stop-color="#FF6B8A"/>
      <stop offset="1" stop-color="#E11D48"/>
    </linearGradient>
  </defs>
  <path d="M32 56C31.3 56 30.6 55.8 30 55.4C21.2 49.7 14.6 44.1 10.1 38.8C5.3 33.3 3 28.2 3 23.1C3 13.7 10.4 6 19.5 6C24.8 6 29.7 8.6 32.8 12.8C35.9 8.6 40.8 6 46.1 6C55.2 6 62.6 13.7 62.6 23.1C62.6 28.2 60.3 33.3 55.5 38.8C51 44.1 44.4 49.7 35.6 55.4C35 55.8 34.3 56 33.6 56H32Z" fill="url(#heartGrad)"/>
  <path d="M45.8 10C40.8 10 36.3 13 34.4 17.6C34.1 18.4 33.3 18.9 32.5 18.9C31.7 18.9 30.9 18.4 30.6 17.6C28.7 13 24.2 10 19.2 10C12.5 10 7 15.8 7 23.1C7 27.1 8.9 31.4 13.1 36.2C17.1 40.8 22.9 45.8 32.3 51.9C41.7 45.8 47.5 40.8 51.5 36.2C55.7 31.4 57.6 27.1 57.6 23.1C57.6 15.8 52.2 10 45.4 10H45.8Z" fill="rgba(255,255,255,0.15)"/>
</svg>
